<svg width="24" height="24" viewBox="0 0 24 24" fill="none" xmlns="http://www.w3.org/2000/svg">
<path d="M10 12.25C9.80109 12.25 9.61032 12.329 9.46967 12.4697C9.32902 12.6103 9.25 12.8011 9.25 13C9.25 13.1989 9.32902 13.3897 9.46967 13.5303C9.61032 13.671 9.80109 13.75 10 13.75H14C14.1989 13.75 14.3897 13.671 14.5303 13.5303C14.671 13.3897 14.75 13.1989 14.75 13C14.75 12.8011 14.671 12.6103 14.5303 12.4697C14.3897 12.329 14.1989 12.25 14 12.25H10Z" fill="#616161"/>
<path fill-rule="evenodd" clip-rule="evenodd" d="M7.32 4.275C7.48798 3.42253 7.94677 2.65484 8.61797 2.1031C9.28917 1.55137 10.1311 1.24983 11 1.25H13C13.8689 1.24983 14.7108 1.55137 15.382 2.1031C16.0532 2.65484 16.512 3.42253 16.68 4.275C18.1154 4.64371 19.3896 5.47458 20.3059 6.63937C21.2221 7.80416 21.7296 9.23814 21.75 10.72V16.375C21.7497 17.5737 21.3408 18.7365 20.5907 19.6715C19.8405 20.6065 18.7941 21.2578 17.624 21.518C13.9199 22.342 10.0801 22.342 6.376 21.518C5.20589 21.2578 4.15945 20.6065 3.40935 19.6715C2.65925 18.7365 2.2503 17.5737 2.25 16.375V10.72C2.27036 9.23814 2.77785 7.80416 3.69414 6.63937C4.61043 5.47458 5.8846 4.64371 7.32 4.275ZM9.015 3.94C9.20704 3.58044 9.49315 3.27981 9.84277 3.07021C10.1924 2.86062 10.5924 2.74994 11 2.75H13C13.86 2.75 14.607 3.232 14.986 3.94C13.0071 3.63817 10.9939 3.63817 9.015 3.94ZM20.25 10.911V13.507C17.6366 14.5989 14.8324 15.1612 12 15.1612C9.16763 15.1612 6.36343 14.5989 3.75 13.507V10.74C3.76632 9.54096 4.19262 8.38364 4.95801 7.46052C5.72339 6.5374 6.78173 5.90412 7.957 5.666C8.041 5.646 8.081 5.638 8.121 5.629C10.6774 5.07285 13.3236 5.07285 15.88 5.629L16.043 5.666L16.21 5.703C17.3768 5.97913 18.4138 6.64631 19.1488 7.5936C19.8838 8.54089 20.2724 9.71122 20.25 10.91M3.75 16.374V15.122C7.89094 16.7213 12.4075 17.0827 16.75 16.162V17C16.75 17.1989 16.829 17.3897 16.9697 17.5303C17.1103 17.671 17.3011 17.75 17.5 17.75C17.6989 17.75 17.8897 17.671 18.0303 17.5303C18.171 17.3897 18.25 17.1989 18.25 17V15.791C18.9265 15.599 19.5939 15.3761 20.25 15.123V16.375C20.25 17.2326 19.9576 18.0645 19.4211 18.7335C18.8846 19.4026 18.1361 19.8687 17.299 20.055C13.809 20.83 10.191 20.83 6.701 20.055C5.8641 19.8685 5.11576 19.4023 4.57947 18.7333C4.04317 18.0643 3.75094 17.2324 3.751 16.375" fill="#616161"/>
</svg>
